<svg width="375" height="688" viewBox="0 0 375 688" fill="none" xmlns="http://www.w3.org/2000/svg">
<g clip-path="url(#clip0_17_2252)">
<path d="M70.8737 192.481L80.8686 193.113C81.7195 193.166 82.52 192.713 82.898 191.964L87.3372 183.164M78.5117 201.307L91.3166 194.061C92.3269 193.489 92.6731 192.223 92.0898 191.233L86.8091 182.268C86.2258 181.277 84.934 180.938 83.9237 181.51L71.1188 188.756C70.1085 189.328 69.7624 190.594 70.3456 191.584L75.6263 200.549C76.2096 201.54 77.5014 201.879 78.5117 201.307Z" stroke="#F9F9F9" stroke-width="2" stroke-linecap="round" stroke-linejoin="round"/>
</g>
<g clip-path="url(#clip1_17_2252)">
<path d="M50.9011 316.536L60.8959 317.168C61.7469 317.222 62.5474 316.769 62.9253 316.02L67.3645 307.22M58.5391 325.363L71.344 318.116C72.3543 317.545 72.7004 316.278 72.1171 315.288L66.8365 306.323C66.2532 305.333 64.9613 304.994 63.951 305.565L51.1461 312.812C50.1359 313.383 49.7897 314.65 50.373 315.64L55.6536 324.605C56.2369 325.595 57.5288 325.934 58.5391 325.363Z" stroke="#F9F9F9" stroke-width="2" stroke-linecap="round" stroke-linejoin="round"/>
</g>
<g clip-path="url(#clip2_17_2252)">
<path d="M204.568 369.331L214.563 369.963C215.414 370.017 216.214 369.564 216.592 368.815L221.032 360.015M212.206 378.158L225.011 370.911C226.021 370.34 226.367 369.073 225.784 368.083L220.503 359.118C219.92 358.128 218.628 357.789 217.618 358.36L204.813 365.607C203.803 366.178 203.457 367.445 204.04 368.435L209.321 377.4C209.904 378.39 211.196 378.729 212.206 378.158Z" stroke="#F9F9F9" stroke-width="2" stroke-linecap="round" stroke-linejoin="round"/>
</g>
<g clip-path="url(#clip3_17_2252)">
<path d="M153.875 524.61L163.87 525.242C164.721 525.296 165.521 524.843 165.899 524.094L170.338 515.294M161.513 533.437L174.318 526.19C175.328 525.619 175.674 524.352 175.091 523.362L169.81 514.397C169.227 513.407 167.935 513.068 166.925 513.639L154.12 520.886C153.109 521.457 152.763 522.724 153.347 523.714L158.627 532.679C159.211 533.669 160.502 534.008 161.513 533.437Z" stroke="#F9F9F9" stroke-width="2" stroke-linecap="round" stroke-linejoin="round"/>
</g>
<g clip-path="url(#clip4_17_2252)">
<path d="M71.9684 610.97L81.9633 611.602C82.8143 611.656 83.6148 611.203 83.9927 610.453L88.4319 601.653M79.6064 619.796L92.4114 612.55C93.4216 611.978 93.7678 610.712 93.1845 609.722L87.9038 600.757C87.3206 599.767 86.0287 599.427 85.0184 599.999L72.2135 607.245C71.2032 607.817 70.8571 609.083 71.4404 610.073L76.721 619.039C77.3043 620.029 78.5962 620.368 79.6064 619.796Z" stroke="#F9F9F9" stroke-width="2" stroke-linecap="round" stroke-linejoin="round"/>
</g>
<g clip-path="url(#clip5_17_2252)">
<path d="M231.5 121.383L241.495 122.015C242.346 122.069 243.146 121.616 243.524 120.867L247.963 112.066M239.138 130.21L251.943 122.963C252.953 122.391 253.299 121.125 252.716 120.135L247.435 111.17C246.852 110.18 245.56 109.84 244.55 110.412L231.745 117.659C230.734 118.23 230.388 119.496 230.972 120.487L236.252 129.452C236.836 130.442 238.127 130.781 239.138 130.21Z" stroke="#F9F9F9" stroke-width="2" stroke-linecap="round" stroke-linejoin="round"/>
</g>
<g clip-path="url(#clip6_17_2252)">
<path d="M283.968 26.92L293.963 27.5518C294.814 27.6056 295.615 27.1526 295.993 26.4034L300.432 17.6032M291.606 35.7463L304.411 28.5C305.422 27.9282 305.768 26.662 305.185 25.6718L299.904 16.7067C299.321 15.7165 298.029 15.3772 297.018 15.9489L284.214 23.1953C283.203 23.767 282.857 25.0332 283.44 26.0235L288.721 34.9885C289.304 35.9787 290.596 36.318 291.606 35.7463Z" stroke="#F9F9F9" stroke-width="2" stroke-linecap="round" stroke-linejoin="round"/>
</g>
<g clip-path="url(#clip7_17_2252)">
<path d="M225.163 245.109L235.158 245.741C236.009 245.794 236.809 245.341 237.187 244.592L241.626 235.792M232.801 253.935L245.606 246.689C246.616 246.117 246.962 244.851 246.379 243.861L241.098 234.896C240.515 233.905 239.223 233.566 238.213 234.138L225.408 241.384C224.398 241.956 224.051 243.222 224.635 244.212L229.915 253.177C230.499 254.168 231.791 254.507 232.801 253.935Z" stroke="#F9F9F9" stroke-width="2" stroke-linecap="round" stroke-linejoin="round"/>
</g>
<g clip-path="url(#clip8_17_2252)">
<path d="M67.9606 84.5621L77.9555 85.1939C78.8065 85.2477 79.6069 84.7947 79.9849 84.0455L84.4241 75.2454M75.5986 93.3885L88.4035 86.1421C89.4138 85.5704 89.76 84.3042 89.1767 83.3139L83.896 74.3489C83.3127 73.3586 82.0209 73.0194 81.0106 73.5911L68.2057 80.8374C67.1954 81.4091 66.8493 82.6754 67.4326 83.6656L72.7132 92.6306C73.2965 93.6209 74.5883 93.9602 75.5986 93.3885Z" stroke="#F9F9F9" stroke-width="2" stroke-linecap="round" stroke-linejoin="round"/>
</g>
<g clip-path="url(#clip9_17_2252)">
<path d="M161.029 227.324C154.69 228.988 150.929 235.374 152.627 241.587L160.051 268.745L187.758 261.468C194.097 259.803 197.858 253.417 196.16 247.204C194.462 240.992 187.947 237.305 181.608 238.969L176.854 240.218L175.581 235.558C173.882 229.346 167.367 225.659 161.029 227.324Z" stroke="#F9F9F9" stroke-width="2" stroke-linecap="round" stroke-linejoin="round"/>
</g>
<g clip-path="url(#clip10_17_2252)">
<path d="M141.056 351.379C134.718 353.044 130.956 359.43 132.655 365.642L140.079 392.8L167.786 385.523C174.124 383.858 177.886 377.473 176.187 371.26C174.489 365.047 167.974 361.36 161.635 363.025L156.882 364.274L155.608 359.614C153.91 353.401 147.395 349.714 141.056 351.379Z" stroke="#F9F9F9" stroke-width="2" stroke-linecap="round" stroke-linejoin="round"/>
</g>
<g clip-path="url(#clip11_17_2252)">
<path d="M139.216 599.851C132.878 601.516 129.116 607.901 130.815 614.114L138.239 641.272L165.946 633.995C172.284 632.33 176.046 625.944 174.347 619.732C172.649 613.519 166.134 609.832 159.796 611.497L155.042 612.745L153.768 608.086C152.07 601.873 145.555 598.186 139.216 599.851Z" stroke="#F9F9F9" stroke-width="2" stroke-linecap="round" stroke-linejoin="round"/>
</g>
<g clip-path="url(#clip12_17_2252)">
<path d="M45.8911 492.571C39.5528 494.236 35.7913 500.622 37.4896 506.835L44.9138 533.993L72.6208 526.715C78.9591 525.051 82.7206 518.665 81.0222 512.452C79.3239 506.24 72.8088 502.553 66.4705 504.217L61.7167 505.466L60.4429 500.806C58.7446 494.594 52.2295 490.907 45.8911 492.571Z" stroke="#F9F9F9" stroke-width="2" stroke-linecap="round" stroke-linejoin="round"/>
</g>
<g clip-path="url(#clip13_17_2252)">
<path d="M294.723 404.174C288.385 405.839 284.623 412.225 286.322 418.437L293.746 445.595L321.453 438.318C327.791 436.653 331.553 430.268 329.854 424.055C328.156 417.842 321.641 414.155 315.302 415.82L310.549 417.069L309.275 412.409C307.577 406.196 301.062 402.509 294.723 404.174Z" stroke="#F9F9F9" stroke-width="2" stroke-linecap="round" stroke-linejoin="round"/>
</g>
<g clip-path="url(#clip14_17_2252)">
<path d="M311.216 592.945C304.878 594.61 301.116 600.995 302.815 607.208L310.239 634.366L337.946 627.089C344.284 625.424 348.046 619.038 346.347 612.826C344.649 606.613 338.134 602.926 331.796 604.591L327.042 605.84L325.768 601.18C324.07 594.967 317.555 591.28 311.216 592.945Z" stroke="#F9F9F9" stroke-width="2" stroke-linecap="round" stroke-linejoin="round"/>
</g>
<g clip-path="url(#clip15_17_2252)">
<path d="M321.655 156.226C315.316 157.891 311.555 164.276 313.253 170.489L320.677 197.647L348.384 190.37C354.723 188.705 358.484 182.319 356.786 176.107C355.088 169.894 348.572 166.207 342.234 167.872L337.48 169.121L336.207 164.461C334.508 158.248 327.993 154.561 321.655 156.226Z" stroke="#F9F9F9" stroke-width="2" stroke-linecap="round" stroke-linejoin="round"/>
</g>
<g clip-path="url(#clip16_17_2252)">
<path d="M315.318 279.951C308.979 281.616 305.218 288.001 306.916 294.214L314.341 321.372L342.048 314.095C348.386 312.43 352.147 306.044 350.449 299.832C348.751 293.619 342.236 289.932 335.897 291.597L331.143 292.846L329.87 288.186C328.171 281.973 321.656 278.286 315.318 279.951Z" stroke="#F9F9F9" stroke-width="2" stroke-linecap="round" stroke-linejoin="round"/>
</g>
<g clip-path="url(#clip17_17_2252)">
<path d="M177.125 106.983C170.786 108.647 167.025 115.033 168.723 121.246L176.147 148.404L203.854 141.127C210.193 139.462 213.954 133.076 212.256 126.863C210.557 120.651 204.042 116.964 197.704 118.629L192.95 119.877L191.676 115.217C189.978 109.005 183.463 105.318 177.125 106.983Z" stroke="#F9F9F9" stroke-width="2" stroke-linecap="round" stroke-linejoin="round"/>
</g>
<path d="M104.557 223.601L108.189 220.041C108.808 219.435 109.811 219.435 110.43 220.041L114.062 223.601M112.478 222.049L113.734 220.817C114.353 220.211 115.356 220.211 115.975 220.817L117.231 222.049M112.478 217.39H112.486M106.141 226.707H115.646C116.521 226.707 117.231 226.012 117.231 225.154V215.837C117.231 214.98 116.521 214.285 115.646 214.285H106.141C105.266 214.285 104.557 214.98 104.557 215.837V225.154C104.557 226.012 105.266 226.707 106.141 226.707Z" stroke="#F9F9F9" stroke-width="2" stroke-linecap="round" stroke-linejoin="round"/>
<path d="M98.1684 24.2606L101.801 20.7002C102.419 20.0938 103.423 20.0938 104.041 20.7002L107.674 24.2606M106.089 22.7078L107.345 21.4766C107.964 20.8702 108.967 20.8702 109.586 21.4766L110.842 22.7078M106.089 18.0494H106.097M99.7526 27.3662H109.258C110.133 27.3662 110.842 26.6709 110.842 25.8134V16.4966C110.842 15.6391 110.133 14.9438 109.258 14.9438H99.7526C98.8777 14.9438 98.1684 15.6391 98.1684 16.4966V25.8134C98.1684 26.6709 98.8777 27.3662 99.7526 27.3662Z" stroke="#F9F9F9" stroke-width="2" stroke-linecap="round" stroke-linejoin="round"/>
<path d="M84.5844 347.657L88.2168 344.097C88.8355 343.49 89.8385 343.49 90.4572 344.097L94.0896 347.657M92.5054 346.104L93.7615 344.873C94.3802 344.267 95.3832 344.267 96.0019 344.873L97.258 346.104M92.5054 341.446H92.5133M86.1686 350.762H95.6738C96.5487 350.762 97.258 350.067 97.258 349.21V339.893C97.258 339.035 96.5487 338.34 95.6738 338.34H86.1686C85.2937 338.34 84.5844 339.035 84.5844 339.893V349.21C84.5844 350.067 85.2937 350.762 86.1686 350.762Z" stroke="#F9F9F9" stroke-width="2" stroke-linecap="round" stroke-linejoin="round"/>
<path d="M238.251 400.452L241.884 396.892C242.502 396.285 243.506 396.285 244.124 396.892L247.757 400.452M246.172 398.899L247.428 397.668C248.047 397.062 249.05 397.062 249.669 397.668L250.925 398.899M246.172 394.241H246.18M239.836 403.558H249.341C250.216 403.558 250.925 402.862 250.925 402.005V392.688C250.925 391.83 250.216 391.135 249.341 391.135H239.836C238.961 391.135 238.251 391.83 238.251 392.688V402.005C238.251 402.862 238.961 403.558 239.836 403.558Z" stroke="#F9F9F9" stroke-width="2" stroke-linecap="round" stroke-linejoin="round"/>
<path d="M265.182 152.504L268.814 148.943C269.433 148.337 270.436 148.337 271.055 148.943L274.687 152.504M273.103 150.951L274.359 149.72C274.978 149.113 275.981 149.113 276.6 149.72L277.856 150.951M273.103 146.293H273.111M266.766 155.609H276.271C277.146 155.609 277.856 154.914 277.856 154.057V144.74C277.856 143.882 277.146 143.187 276.271 143.187H266.766C265.891 143.187 265.182 143.882 265.182 144.74V154.057C265.182 154.914 265.891 155.609 266.766 155.609Z" stroke="#F9F9F9" stroke-width="2" stroke-linecap="round" stroke-linejoin="round"/>
<path d="M332.168 270.903L335.801 267.343C336.419 266.737 337.423 266.737 338.041 267.343L341.674 270.903M340.089 269.351L341.345 268.119C341.964 267.513 342.967 267.513 343.586 268.119L344.842 269.351M340.089 264.692H340.097M333.753 274.009H343.258C344.133 274.009 344.842 273.314 344.842 272.456V263.139C344.842 262.282 344.133 261.587 343.258 261.587H333.753C332.878 261.587 332.168 262.282 332.168 263.139V272.456C332.168 273.314 332.878 274.009 333.753 274.009Z" stroke="#F9F9F9" stroke-width="2" stroke-linecap="round" stroke-linejoin="round"/>
<path d="M258.846 276.229L262.479 272.668C263.097 272.062 264.1 272.062 264.719 272.668L268.351 276.229M266.767 274.676L268.023 273.445C268.642 272.838 269.645 272.838 270.264 273.445L271.52 274.676M266.767 270.018H266.775M260.43 279.334H269.936C270.81 279.334 271.52 278.639 271.52 277.782V268.465C271.52 267.607 270.81 266.912 269.936 266.912H260.43C259.555 266.912 258.846 267.607 258.846 268.465V277.782C258.846 278.639 259.555 279.334 260.43 279.334Z" stroke="#F9F9F9" stroke-width="2" stroke-linecap="round" stroke-linejoin="round"/>
<path d="M101.642 115.682L105.274 112.122C105.893 111.515 106.896 111.515 107.515 112.122L111.147 115.682M109.563 114.129L110.819 112.898C111.438 112.292 112.441 112.292 113.06 112.898L114.316 114.129M109.563 109.471H109.571M103.226 118.788H112.731C113.606 118.788 114.316 118.093 114.316 117.235V107.918C114.316 107.061 113.606 106.365 112.731 106.365H103.226C102.351 106.365 101.642 107.061 101.642 107.918V117.235C101.642 118.093 102.351 118.788 103.226 118.788Z" stroke="#F9F9F9" stroke-width="2" stroke-linecap="round" stroke-linejoin="round"/>
<g clip-path="url(#clip18_17_2252)">
<path d="M138.459 141.061C138.762 140.147 140.055 140.147 140.358 141.061L144.873 154.679C145.008 155.088 145.391 155.364 145.822 155.364L160.388 155.365C161.361 155.365 161.761 156.615 160.968 157.179L149.219 165.547C148.861 165.802 148.712 166.259 148.85 166.676L153.345 180.239C153.649 181.157 152.603 181.929 151.816 181.368L139.989 172.946C139.642 172.699 139.176 172.699 138.829 172.946L127.002 181.368C126.214 181.929 125.168 181.157 125.472 180.239L129.968 166.676C130.106 166.259 129.956 165.802 129.599 165.547L117.85 157.179C117.057 156.615 117.456 155.365 118.43 155.365L132.995 155.364C133.426 155.364 133.809 155.088 133.945 154.679L138.459 141.061Z" stroke="#F9F9F9" stroke-width="2"/>
</g>
<g clip-path="url(#clip19_17_2252)">
<path d="M118.487 265.117C118.79 264.203 120.082 264.203 120.385 265.117L124.9 278.735C125.036 279.144 125.418 279.42 125.849 279.42L140.415 279.421C141.388 279.421 141.788 280.671 140.995 281.235L129.246 289.603C128.889 289.858 128.739 290.315 128.877 290.732L133.372 304.295C133.677 305.213 132.631 305.985 131.843 305.424L120.016 297.002C119.669 296.755 119.203 296.755 118.856 297.002L107.029 305.424C106.241 305.985 105.195 305.213 105.5 304.295L109.995 290.732C110.133 290.315 109.983 289.858 109.626 289.603L97.8771 281.235C97.0841 280.671 97.4836 279.421 98.4572 279.421L113.023 279.42C113.454 279.42 113.836 279.144 113.972 278.735L118.487 265.117Z" stroke="#F9F9F9" stroke-width="2"/>
</g>
<g clip-path="url(#clip20_17_2252)">
<path d="M272.154 317.911C272.457 316.998 273.749 316.998 274.052 317.911L278.567 331.53C278.703 331.939 279.085 332.215 279.516 332.215L294.082 332.215C295.055 332.216 295.455 333.465 294.662 334.03L282.913 342.397C282.556 342.652 282.406 343.11 282.544 343.527L287.039 357.089C287.344 358.007 286.298 358.779 285.51 358.218L273.683 349.797C273.336 349.549 272.87 349.549 272.523 349.797L260.696 358.218C259.908 358.779 258.862 358.007 259.167 357.089L263.662 343.527C263.8 343.11 263.65 342.652 263.293 342.397L251.544 334.03C250.751 333.465 251.151 332.216 252.124 332.215L266.69 332.215C267.121 332.215 267.503 331.939 267.639 331.53L272.154 317.911Z" stroke="#F9F9F9" stroke-width="2"/>
</g>
<g clip-path="url(#clip21_17_2252)">
<path d="M299.085 69.9632C299.388 69.0495 300.681 69.0495 300.984 69.9632L305.499 83.5814C305.634 83.9905 306.017 84.2667 306.448 84.2667L321.014 84.2673C321.987 84.2673 322.387 85.5171 321.594 86.0818L309.845 94.4492C309.487 94.7039 309.338 95.1618 309.476 95.5784L313.971 109.141C314.275 110.059 313.229 110.831 312.442 110.27L300.615 101.848C300.268 101.601 299.802 101.601 299.455 101.848L287.628 110.27C286.84 110.831 285.794 110.059 286.098 109.141L290.594 95.5784C290.732 95.1618 290.582 94.7039 290.225 94.4492L278.476 86.0818C277.683 85.5171 278.082 84.2673 279.056 84.2673L293.621 84.2667C294.052 84.2667 294.435 83.9905 294.571 83.5814L299.085 69.9632Z" stroke="#F9F9F9" stroke-width="2"/>
</g>
<g clip-path="url(#clip22_17_2252)">
<path d="M211.398 4.8356C211.701 3.92185 212.993 3.92185 213.296 4.83559L217.811 18.4538C217.947 18.8629 218.329 19.1391 218.76 19.1391L233.326 19.1396C234.3 19.1397 234.699 20.3894 233.906 20.9542L222.157 29.3216C221.8 29.5762 221.65 30.0342 221.788 30.4508L226.284 44.0135C226.588 44.9312 225.542 45.7035 224.754 45.1427L212.927 36.7208C212.58 36.4736 212.114 36.4736 211.767 36.7208L199.94 45.1427C199.152 45.7035 198.107 44.9312 198.411 44.0135L202.906 30.4508C203.044 30.0342 202.895 29.5762 202.537 29.3216L190.788 20.9542C189.995 20.3894 190.395 19.1397 191.368 19.1396L205.934 19.1391C206.365 19.1391 206.747 18.8629 206.883 18.4538L211.398 4.8356Z" stroke="#F9F9F9" stroke-width="2"/>
</g>
<g clip-path="url(#clip23_17_2252)">
<path d="M292.749 193.688C293.051 192.775 294.344 192.775 294.647 193.688L299.162 207.307C299.297 207.716 299.68 207.992 300.111 207.992L314.677 207.992C315.65 207.992 316.05 209.242 315.257 209.807L303.508 218.174C303.15 218.429 303.001 218.887 303.139 219.303L307.634 232.866C307.938 233.784 306.892 234.556 306.105 233.995L294.278 225.574C293.931 225.326 293.465 225.326 293.118 225.574L281.291 233.995C280.503 234.556 279.457 233.784 279.761 232.866L284.257 219.303C284.395 218.887 284.245 218.429 283.888 218.174L272.139 209.807C271.346 209.242 271.745 207.992 272.719 207.992L287.284 207.992C287.716 207.992 288.098 207.716 288.234 207.307L292.749 193.688Z" stroke="#F9F9F9" stroke-width="2"/>
</g>
<g clip-path="url(#clip24_17_2252)">
<path d="M135.545 33.1422C135.848 32.2284 137.141 32.2284 137.444 33.1422L141.959 46.7604C142.094 47.1695 142.477 47.4457 142.908 47.4457L157.473 47.4462C158.447 47.4462 158.847 48.696 158.054 49.2608L146.305 57.6282C145.947 57.8828 145.798 58.3407 145.936 58.7573L150.431 72.32C150.735 73.2378 149.689 74.0101 148.902 73.4492L137.075 65.0274C136.727 64.7802 136.262 64.7802 135.915 65.0274L124.088 73.4492C123.3 74.0101 122.254 73.2378 122.558 72.32L127.054 58.7573C127.192 58.3407 127.042 57.8828 126.685 57.6282L114.936 49.2607C114.143 48.696 114.542 47.4462 115.516 47.4462L130.081 47.4457C130.512 47.4457 130.895 47.1695 131.031 46.7604L135.545 33.1422Z" stroke="#F9F9F9" stroke-width="2"/>
</g>
<g clip-path="url(#clip25_17_2252)">
<path d="M192.586 171.251C193.023 170.508 193.992 170.253 194.75 170.682C195.507 171.111 195.767 172.061 195.329 172.803L194.933 173.476C194.715 173.847 194.845 174.322 195.223 174.536L197.281 175.701C197.66 175.915 197.79 176.39 197.571 176.762L196.383 178.779C196.164 179.15 195.68 179.277 195.301 179.063L194.615 178.675C193.857 178.246 192.888 178.5 192.451 179.243C192.014 179.986 192.273 180.935 193.031 181.364L193.717 181.752C194.096 181.967 194.226 182.442 194.007 182.813L192.819 184.83C192.6 185.201 192.115 185.329 191.737 185.114L189.679 183.95C189.3 183.735 189.17 183.26 189.389 182.889L189.785 182.217C190.222 181.474 189.963 180.524 189.205 180.096C188.447 179.667 187.478 179.921 187.041 180.664L186.645 181.336C186.426 181.708 185.942 181.835 185.563 181.62L183.505 180.456C183.126 180.241 182.996 179.767 183.215 179.395L184.403 177.378C184.622 177.007 184.492 176.532 184.113 176.318L183.427 175.929C182.669 175.501 182.41 174.551 182.847 173.808C183.285 173.066 184.254 172.811 185.011 173.24L185.697 173.628C186.076 173.842 186.561 173.715 186.779 173.344L187.968 171.327C188.186 170.955 188.671 170.828 189.05 171.043L191.107 172.207C191.486 172.422 191.971 172.294 192.19 171.923L192.586 171.251Z" stroke="#F9F9F9" stroke-width="2" stroke-linecap="round" stroke-linejoin="round"/>
</g>
<g clip-path="url(#clip26_17_2252)">
<path d="M172.614 295.306C173.051 294.563 174.02 294.309 174.778 294.738C175.536 295.167 175.795 296.116 175.358 296.859L174.962 297.531C174.743 297.903 174.873 298.377 175.252 298.592L177.31 299.756C177.688 299.971 177.818 300.446 177.6 300.817L176.411 302.834C176.193 303.206 175.708 303.333 175.329 303.118L174.643 302.73C173.886 302.301 172.917 302.556 172.479 303.299C172.042 304.041 172.301 304.991 173.059 305.42L173.745 305.808C174.124 306.022 174.254 306.497 174.035 306.868L172.847 308.886C172.628 309.257 172.144 309.384 171.765 309.17L169.707 308.005C169.328 307.791 169.198 307.316 169.417 306.945L169.813 306.272C170.251 305.53 169.991 304.58 169.233 304.151C168.476 303.722 167.507 303.977 167.069 304.719L166.673 305.392C166.454 305.763 165.97 305.89 165.591 305.676L163.533 304.511C163.154 304.297 163.025 303.822 163.243 303.451L164.431 301.434C164.65 301.062 164.52 300.587 164.141 300.373L163.456 299.985C162.698 299.556 162.438 298.606 162.876 297.864C163.313 297.121 164.282 296.867 165.04 297.295L165.726 297.684C166.105 297.898 166.589 297.771 166.808 297.399L167.996 295.382C168.215 295.011 168.699 294.884 169.078 295.098L171.136 296.263C171.515 296.477 171.999 296.35 172.218 295.979L172.614 295.306Z" stroke="#F9F9F9" stroke-width="2" stroke-linecap="round" stroke-linejoin="round"/>
</g>
<g clip-path="url(#clip27_17_2252)">
<path d="M326.28 348.101C326.717 347.358 327.686 347.104 328.444 347.533C329.202 347.962 329.461 348.911 329.024 349.654L328.628 350.326C328.409 350.698 328.539 351.172 328.918 351.387L330.976 352.551C331.355 352.766 331.484 353.241 331.266 353.612L330.077 355.629C329.859 356.001 329.374 356.128 328.995 355.913L328.309 355.525C327.552 355.096 326.583 355.351 326.145 356.094C325.708 356.836 325.968 357.786 326.725 358.215L327.411 358.603C327.79 358.817 327.92 359.292 327.701 359.663L326.513 361.681C326.294 362.052 325.81 362.179 325.431 361.965L323.373 360.8C322.994 360.586 322.864 360.111 323.083 359.74L323.479 359.067C323.917 358.325 323.657 357.375 322.899 356.946C322.142 356.517 321.173 356.772 320.735 357.514L320.339 358.187C320.12 358.558 319.636 358.685 319.257 358.471L317.199 357.306C316.82 357.092 316.691 356.617 316.909 356.246L318.097 354.229C318.316 353.857 318.186 353.383 317.808 353.168L317.122 352.78C316.364 352.351 316.104 351.401 316.542 350.659C316.979 349.916 317.948 349.662 318.706 350.09L319.392 350.479C319.771 350.693 320.255 350.566 320.474 350.194L321.662 348.177C321.881 347.806 322.365 347.679 322.744 347.893L324.802 349.058C325.181 349.272 325.665 349.145 325.884 348.774L326.28 348.101Z" stroke="#F9F9F9" stroke-width="2" stroke-linecap="round" stroke-linejoin="round"/>
</g>
<g clip-path="url(#clip28_17_2252)">
<path d="M353.212 100.153C353.649 99.4103 354.618 99.1558 355.376 99.5846C356.133 100.013 356.393 100.963 355.955 101.706L355.559 102.378C355.341 102.749 355.47 103.224 355.849 103.439L357.907 104.603C358.286 104.818 358.416 105.293 358.197 105.664L357.009 107.681C356.79 108.052 356.306 108.18 355.927 107.965L355.241 107.577C354.483 107.148 353.514 107.403 353.077 108.145C352.64 108.888 352.899 109.838 353.657 110.266L354.343 110.655C354.722 110.869 354.852 111.344 354.633 111.715L353.445 113.732C353.226 114.104 352.741 114.231 352.363 114.017L350.305 112.852C349.926 112.638 349.796 112.163 350.015 111.791L350.411 111.119C350.848 110.376 350.589 109.427 349.831 108.998C349.073 108.569 348.104 108.824 347.667 109.566L347.271 110.239C347.052 110.61 346.568 110.737 346.189 110.523L344.131 109.358C343.752 109.144 343.622 108.669 343.841 108.298L345.029 106.28C345.248 105.909 345.118 105.434 344.739 105.22L344.053 104.832C343.295 104.403 343.036 103.453 343.473 102.711C343.911 101.968 344.88 101.713 345.637 102.142L346.323 102.53C346.702 102.745 347.187 102.618 347.405 102.246L348.594 100.229C348.812 99.8578 349.297 99.7305 349.676 99.9449L351.733 101.11C352.112 101.324 352.597 101.197 352.816 100.825L353.212 100.153Z" stroke="#F9F9F9" stroke-width="2" stroke-linecap="round" stroke-linejoin="round"/>
</g>
<g clip-path="url(#clip29_17_2252)">
<path d="M346.875 223.878C347.312 223.135 348.281 222.881 349.039 223.31C349.796 223.738 350.056 224.688 349.619 225.431L349.223 226.103C349.004 226.475 349.134 226.949 349.512 227.164L351.57 228.328C351.949 228.543 352.079 229.018 351.86 229.389L350.672 231.406C350.453 231.777 349.969 231.905 349.59 231.69L348.904 231.302C348.146 230.873 347.178 231.128 346.74 231.87C346.303 232.613 346.562 233.563 347.32 233.992L348.006 234.38C348.385 234.594 348.515 235.069 348.296 235.44L347.108 237.457C346.889 237.829 346.405 237.956 346.026 237.742L343.968 236.577C343.589 236.363 343.459 235.888 343.678 235.516L344.074 234.844C344.511 234.101 344.252 233.152 343.494 232.723C342.736 232.294 341.767 232.549 341.33 233.291L340.934 233.964C340.715 234.335 340.231 234.462 339.852 234.248L337.794 233.083C337.415 232.869 337.285 232.394 337.504 232.023L338.692 230.006C338.911 229.634 338.781 229.159 338.402 228.945L337.716 228.557C336.959 228.128 336.699 227.178 337.136 226.436C337.574 225.693 338.543 225.438 339.3 225.867L339.986 226.255C340.365 226.47 340.85 226.343 341.068 225.971L342.257 223.954C342.475 223.583 342.96 223.456 343.339 223.67L345.397 224.835C345.775 225.049 346.26 224.922 346.479 224.55L346.875 223.878Z" stroke="#F9F9F9" stroke-width="2" stroke-linecap="round" stroke-linejoin="round"/>
</g>
<g clip-path="url(#clip30_17_2252)">
<path d="M189.672 63.3319C190.109 62.5892 191.078 62.3347 191.836 62.7635C192.593 63.1923 192.853 64.142 192.415 64.8847L192.019 65.5571C191.801 65.9284 191.93 66.4032 192.309 66.6176L194.367 67.7822C194.746 67.9966 194.876 68.4714 194.657 68.8428L193.469 70.8599C193.25 71.2313 192.766 71.3585 192.387 71.1441L191.701 70.7559C190.943 70.3271 189.974 70.5816 189.537 71.3243C189.099 72.067 189.359 73.0166 190.117 73.4454L190.803 73.8336C191.182 74.048 191.311 74.5228 191.093 74.8942L189.905 76.9113C189.686 77.2827 189.201 77.4099 188.823 77.1955L186.765 76.0309C186.386 75.8165 186.256 75.3417 186.475 74.9703L186.871 74.298C187.308 73.5553 187.049 72.6056 186.291 72.1768C185.533 71.748 184.564 72.0025 184.127 72.7452L183.731 73.4175C183.512 73.7889 183.028 73.9161 182.649 73.7017L180.591 72.5371C180.212 72.3227 180.082 71.8479 180.301 71.4766L181.489 69.4594C181.708 69.0881 181.578 68.6132 181.199 68.3989L180.513 68.0107C179.755 67.5819 179.496 66.6322 179.933 65.8895C180.371 65.1468 181.34 64.8924 182.097 65.3211L182.783 65.7093C183.162 65.9237 183.647 65.7965 183.865 65.4252L185.053 63.408C185.272 63.0367 185.757 62.9095 186.136 63.1239L188.193 64.2884C188.572 64.5028 189.057 64.3756 189.275 64.0043L189.672 63.3319Z" stroke="#F9F9F9" stroke-width="2" stroke-linecap="round" stroke-linejoin="round"/>
</g>
<g clip-path="url(#clip31_17_2252)">
<path d="M67.3286 141.359L77.6259 158.841M67.3286 141.359C67.3286 141.359 66.1462 139.352 65.7444 138.67C64.8695 137.185 65.3887 135.285 66.9041 134.428C68.4195 133.57 70.3573 134.079 71.2322 135.564C72.1071 137.05 71.5879 138.949 70.0725 139.807C69.253 140.27 67.3286 141.359 67.3286 141.359ZM67.3286 141.359C67.3286 141.359 65.7942 138.755 65.3483 137.998C64.2547 136.141 61.8325 135.505 59.9382 136.577C58.0439 137.649 57.3949 140.023 58.4886 141.879C59.5822 143.736 62.0044 144.372 63.8987 143.3C65.0207 142.665 67.3286 141.359 67.3286 141.359ZM60.8933 152.173L80.1007 141.304M60.8933 152.173C59.3779 153.031 57.4401 152.522 56.5652 151.036C55.6902 149.551 56.2095 147.652 57.7249 146.794L76.9323 135.925C78.4477 135.067 80.3854 135.576 81.2604 137.061C82.1353 138.547 81.6161 140.446 80.1007 141.304M60.8933 152.173L66.438 161.586C67.3129 163.072 69.2507 163.581 70.7661 162.723L84.4856 154.959C86.0011 154.102 86.5203 152.202 85.6454 150.717L80.1007 141.304" stroke="#F9F9F9" stroke-width="2" stroke-linecap="round" stroke-linejoin="round"/>
</g>
<g clip-path="url(#clip32_17_2252)">
<path d="M47.3549 265.415L57.6522 282.897M47.3549 265.415C47.3549 265.415 46.1725 263.407 45.7707 262.725C44.8958 261.24 45.415 259.341 46.9305 258.483C48.4459 257.626 50.3836 258.134 51.2586 259.62C52.1335 261.105 51.6143 263.005 50.0989 263.862C49.2793 264.326 47.3549 265.415 47.3549 265.415ZM47.3549 265.415C47.3549 265.415 45.8206 262.81 45.3747 262.053C44.281 260.196 41.8588 259.56 39.9646 260.632C38.0703 261.704 37.4213 264.078 38.5149 265.935C39.6086 267.792 42.0308 268.428 43.9251 267.356C45.047 266.721 47.3549 265.415 47.3549 265.415ZM40.9197 276.229L60.127 265.359M40.9197 276.229C39.4042 277.086 37.4665 276.577 36.5915 275.092C35.7166 273.607 36.2358 271.707 37.7513 270.85L56.9586 259.98C58.4741 259.123 60.4118 259.631 61.2867 261.117C62.1617 262.602 61.6424 264.502 60.127 265.359M40.9197 276.229L46.4643 285.642C47.3393 287.127 49.277 287.636 50.7925 286.779L64.512 279.015C66.0274 278.157 66.5466 276.258 65.6717 274.772L60.127 265.359" stroke="#F9F9F9" stroke-width="2" stroke-linecap="round" stroke-linejoin="round"/>
</g>
<g clip-path="url(#clip33_17_2252)">
<path d="M201.023 318.21L211.32 335.692M201.023 318.21C201.023 318.21 199.84 316.203 199.439 315.52C198.564 314.035 199.083 312.136 200.598 311.278C202.114 310.421 204.052 310.929 204.927 312.415C205.801 313.9 205.282 315.8 203.767 316.657C202.947 317.121 201.023 318.21 201.023 318.21ZM201.023 318.21C201.023 318.21 199.489 315.605 199.043 314.848C197.949 312.991 195.527 312.355 193.633 313.427C191.738 314.499 191.089 316.873 192.183 318.73C193.277 320.587 195.699 321.223 197.593 320.151C198.715 319.516 201.023 318.21 201.023 318.21ZM194.588 329.024L213.795 318.154M194.588 329.024C193.072 329.881 191.134 329.372 190.26 327.887C189.385 326.402 189.904 324.502 191.419 323.645L210.627 312.775C212.142 311.918 214.08 312.427 214.955 313.912C215.83 315.397 215.31 317.297 213.795 318.154M194.588 329.024L200.132 338.437C201.007 339.922 202.945 340.431 204.46 339.574L218.18 331.81C219.695 330.952 220.215 329.053 219.34 327.567L213.795 318.154" stroke="#F9F9F9" stroke-width="2" stroke-linecap="round" stroke-linejoin="round"/>
</g>
<g clip-path="url(#clip34_17_2252)">
<path d="M227.954 70.2617L238.251 87.7435M227.954 70.2617C227.954 70.2617 226.771 68.2543 226.369 67.5722C225.494 66.0869 226.014 64.1875 227.529 63.3299C229.045 62.4724 230.982 62.9813 231.857 64.4667C232.732 65.952 232.213 67.8514 230.697 68.7089C229.878 69.1727 227.954 70.2617 227.954 70.2617ZM227.954 70.2617C227.954 70.2617 226.419 67.6568 225.973 66.8999C224.88 65.0431 222.457 64.407 220.563 65.479C218.669 66.5509 218.02 68.9251 219.114 70.7818C220.207 72.6385 222.629 73.2747 224.524 72.2027C225.646 71.5678 227.954 70.2617 227.954 70.2617ZM221.518 81.0755L240.726 70.206M221.518 81.0755C220.003 81.9331 218.065 81.4242 217.19 79.9388C216.315 78.4534 216.834 76.5541 218.35 75.6965L237.557 64.827C239.073 63.9694 241.01 64.4783 241.885 65.9637C242.76 67.4491 242.241 69.3484 240.726 70.206M221.518 81.0755L227.063 90.4888C227.938 91.9742 229.876 92.4831 231.391 91.6255L245.111 83.8616C246.626 83.004 247.145 81.1046 246.27 79.6193L240.726 70.206" stroke="#F9F9F9" stroke-width="2" stroke-linecap="round" stroke-linejoin="round"/>
</g>
<g clip-path="url(#clip35_17_2252)">
<path d="M221.617 193.987L231.914 211.469M221.617 193.987C221.617 193.987 220.434 191.979 220.032 191.297C219.158 189.812 219.677 187.913 221.192 187.055C222.708 186.197 224.645 186.706 225.52 188.192C226.395 189.677 225.876 191.576 224.361 192.434C223.541 192.898 221.617 193.987 221.617 193.987ZM221.617 193.987C221.617 193.987 220.082 191.382 219.636 190.625C218.543 188.768 216.121 188.132 214.226 189.204C212.332 190.276 211.683 192.65 212.777 194.507C213.87 196.364 216.292 197 218.187 195.928C219.309 195.293 221.617 193.987 221.617 193.987ZM215.181 204.801L234.389 193.931M215.181 204.801C213.666 205.658 211.728 205.149 210.853 203.664C209.978 202.178 210.498 200.279 212.013 199.422L231.22 188.552C232.736 187.694 234.674 188.203 235.548 189.689C236.423 191.174 235.904 193.073 234.389 193.931M215.181 204.801L220.726 214.214C221.601 215.699 223.539 216.208 225.054 215.351L238.774 207.587C240.289 206.729 240.808 204.83 239.933 203.344L234.389 193.931" stroke="#F9F9F9" stroke-width="2" stroke-linecap="round" stroke-linejoin="round"/>
</g>
<g clip-path="url(#clip36_17_2252)">
<path d="M50.5239 20.0748L60.8212 37.5566M50.5239 20.0748C50.5239 20.0748 49.3415 18.0673 48.9397 17.3852C48.0648 15.8999 48.584 14.0005 50.0994 13.143C51.6148 12.2854 53.5526 12.7943 54.4275 14.2797C55.3024 15.765 54.7832 17.6644 53.2678 18.522C52.4483 18.9857 50.5239 20.0748 50.5239 20.0748ZM50.5239 20.0748C50.5239 20.0748 48.9895 17.4698 48.5436 16.7129C47.45 14.8562 45.0278 14.22 43.1335 15.292C41.2392 16.3639 40.5902 18.7381 41.6839 20.5948C42.7775 22.4516 45.1997 23.0877 47.094 22.0157C48.216 21.3808 50.5239 20.0748 50.5239 20.0748ZM44.0886 30.8885L63.296 20.019M44.0886 30.8885C42.5732 31.7461 40.6354 31.2372 39.7605 29.7518C38.8856 28.2664 39.4048 26.3671 40.9202 25.5095L60.1276 14.64C61.643 13.7824 63.5808 14.2913 64.4557 15.7767C65.3306 17.2621 64.8114 19.1614 63.296 20.019M44.0886 30.8885L49.6333 40.3018C50.5082 41.7872 52.446 42.2961 53.9614 41.4385L67.681 33.6746C69.1964 32.817 69.7156 30.9177 68.8407 29.4323L63.296 20.019" stroke="#F9F9F9" stroke-width="2" stroke-linecap="round" stroke-linejoin="round"/>
</g>
<g clip-path="url(#clip37_17_2252)">
<path d="M191.102 492.001L201.097 492.633C201.948 492.687 202.749 492.234 203.127 491.485L207.566 482.685M198.74 500.828L211.545 493.581C212.555 493.01 212.902 491.744 212.318 490.753L207.038 481.788C206.454 480.798 205.163 480.459 204.152 481.03L191.347 488.277C190.337 488.849 189.991 490.115 190.574 491.105L195.855 500.07C196.438 501.06 197.73 501.4 198.74 500.828Z" stroke="#F9F9F9" stroke-width="2" stroke-linecap="round" stroke-linejoin="round"/>
</g>
<g clip-path="url(#clip38_17_2252)">
<path d="M216.968 581.373L226.963 582.005C227.814 582.058 228.615 581.605 228.993 580.856L233.432 572.056M224.606 590.199L237.411 582.953C238.422 582.381 238.768 581.115 238.185 580.125L232.904 571.16C232.321 570.169 231.029 569.83 230.018 570.402L217.214 577.648C216.203 578.22 215.857 579.486 216.44 580.476L221.721 589.441C222.304 590.432 223.596 590.771 224.606 590.199Z" stroke="#F9F9F9" stroke-width="2" stroke-linecap="round" stroke-linejoin="round"/>
</g>
<g clip-path="url(#clip39_17_2252)">
<path d="M112.426 456.857C106.088 458.522 102.326 464.908 104.025 471.121L111.449 498.279L139.156 491.001C145.494 489.337 149.256 482.951 147.557 476.738C145.859 470.525 139.344 466.839 133.006 468.503L128.252 469.752L126.978 465.092C125.28 458.88 118.765 455.193 112.426 456.857Z" stroke="#F9F9F9" stroke-width="2" stroke-linecap="round" stroke-linejoin="round"/>
</g>
<g clip-path="url(#clip40_17_2252)">
<path d="M281.257 526.844C274.919 528.509 271.157 534.895 272.856 541.107L280.28 568.265L307.987 560.988C314.325 559.324 318.087 552.938 316.388 546.725C314.69 540.512 308.175 536.825 301.837 538.49L297.083 539.739L295.809 535.079C294.111 528.866 287.596 525.179 281.257 526.844Z" stroke="#F9F9F9" stroke-width="2" stroke-linecap="round" stroke-linejoin="round"/>
</g>
<path d="M60.0297 467.222L63.6621 463.661C64.2808 463.055 65.2838 463.055 65.9025 463.661L69.5349 467.222M67.9507 465.669L69.2068 464.438C69.8255 463.831 70.8285 463.831 71.4472 464.438L72.7033 465.669M67.9507 461.011H67.9586M61.6139 470.327H71.1191C71.994 470.327 72.7033 469.632 72.7033 468.775V459.458C72.7033 458.6 71.994 457.905 71.1191 457.905H61.6139C60.739 457.905 60.0297 458.6 60.0297 459.458V468.775C60.0297 469.632 60.739 470.327 61.6139 470.327Z" stroke="#F9F9F9" stroke-width="2" stroke-linecap="round" stroke-linejoin="round"/>
<path d="M224.787 523.122L228.419 519.562C229.038 518.955 230.041 518.955 230.659 519.562L234.292 523.122M232.708 521.569L233.964 520.338C234.582 519.732 235.585 519.732 236.204 520.338L237.46 521.569M232.708 516.911H232.715M226.371 526.228H235.876C236.751 526.228 237.46 525.532 237.46 524.675V515.358C237.46 514.5 236.751 513.805 235.876 513.805H226.371C225.496 513.805 224.787 514.5 224.787 515.358V524.675C224.787 525.532 225.496 526.228 226.371 526.228Z" stroke="#F9F9F9" stroke-width="2" stroke-linecap="round" stroke-linejoin="round"/>
<g clip-path="url(#clip41_17_2252)">
<path d="M93.9331 384.681C94.2361 383.768 95.5286 383.768 95.8315 384.681L100.346 398.3C100.482 398.709 100.865 398.985 101.296 398.985L115.861 398.985C116.835 398.985 117.234 400.235 116.441 400.8L104.692 409.167C104.335 409.422 104.185 409.88 104.323 410.296L108.819 423.859C109.123 424.777 108.077 425.549 107.289 424.988L95.4624 416.567C95.1152 416.319 94.6495 416.319 94.3023 416.567L82.4752 424.988C81.6876 425.549 80.6418 424.777 80.946 423.859L85.4413 410.296C85.5794 409.88 85.4297 409.422 85.0722 409.167L73.3234 400.8C72.5304 400.235 72.9299 398.985 73.9035 398.985L88.4691 398.985C88.9001 398.985 89.2826 398.709 89.4182 398.3L93.9331 384.681Z" stroke="#F9F9F9" stroke-width="2"/>
</g>
<g clip-path="url(#clip42_17_2252)">
<path d="M39.398 554.356C39.7009 553.442 40.9934 553.442 41.2964 554.356L45.8113 567.974C45.9469 568.383 46.3294 568.659 46.7604 568.659L61.326 568.66C62.2996 568.66 62.6991 569.909 61.9061 570.474L50.1573 578.842C49.7998 579.096 49.6501 579.554 49.7882 579.971L54.2835 593.534C54.5877 594.451 53.5418 595.224 52.7543 594.663L40.9272 586.241C40.58 585.994 40.1143 585.994 39.7671 586.241L27.9401 594.663C27.1525 595.224 26.1066 594.451 26.4108 593.534L30.9062 579.971C31.0442 579.554 30.8945 579.096 30.537 578.842L18.7882 570.474C17.9953 569.909 18.3948 568.66 19.3683 568.66L33.9339 568.659C34.3649 568.659 34.7474 568.383 34.8831 567.974L39.398 554.356Z" stroke="#F9F9F9" stroke-width="2"/>
</g>
<g clip-path="url(#clip43_17_2252)">
<path d="M300.398 641.174C300.701 640.26 301.993 640.26 302.296 641.174L306.811 654.792C306.947 655.201 307.329 655.477 307.76 655.477L322.326 655.478C323.3 655.478 323.699 656.728 322.906 657.292L311.157 665.66C310.8 665.915 310.65 666.372 310.788 666.789L315.284 680.352C315.588 681.27 314.542 682.042 313.754 681.481L301.927 673.059C301.58 672.812 301.114 672.812 300.767 673.059L288.94 681.481C288.152 682.042 287.107 681.27 287.411 680.352L291.906 666.789C292.044 666.372 291.895 665.915 291.537 665.66L279.788 657.292C278.995 656.728 279.395 655.478 280.368 655.478L294.934 655.477C295.365 655.477 295.747 655.201 295.883 654.792L300.398 641.174Z" stroke="#F9F9F9" stroke-width="2"/>
</g>
<g clip-path="url(#clip44_17_2252)">
<path d="M258.689 440.582C258.992 439.668 260.284 439.668 260.587 440.582L265.102 454.2C265.238 454.609 265.62 454.885 266.051 454.885L280.617 454.886C281.591 454.886 281.99 456.135 281.197 456.7L269.448 465.068C269.091 465.322 268.941 465.78 269.079 466.197L273.575 479.759C273.879 480.677 272.833 481.449 272.045 480.889L260.218 472.467C259.871 472.22 259.405 472.22 259.058 472.467L247.231 480.889C246.443 481.449 245.398 480.677 245.702 479.759L250.197 466.197C250.335 465.78 250.186 465.322 249.828 465.068L238.079 456.7C237.286 456.135 237.686 454.886 238.659 454.886L253.225 454.885C253.656 454.885 254.038 454.609 254.174 454.2L258.689 440.582Z" stroke="#F9F9F9" stroke-width="2"/>
</g>
<g clip-path="url(#clip45_17_2252)">
<path d="M30.398 633.281C30.7009 632.368 31.9934 632.368 32.2964 633.281L36.8113 646.9C36.9469 647.309 37.3294 647.585 37.7604 647.585L52.326 647.585C53.2996 647.585 53.6991 648.835 52.9061 649.4L41.1573 657.767C40.7998 658.022 40.6501 658.48 40.7882 658.896L45.2835 672.459C45.5877 673.377 44.5418 674.149 43.7543 673.588L31.9272 665.167C31.58 664.919 31.1143 664.919 30.7671 665.167L18.9401 673.588C18.1525 674.149 17.1066 673.377 17.4108 672.459L21.9062 658.896C22.0442 658.48 21.8945 658.022 21.537 657.767L9.78823 649.4C8.99525 648.835 9.39477 647.585 10.3683 647.585L24.9339 647.585C25.3649 647.585 25.7474 647.309 25.8831 646.9L30.398 633.281Z" stroke="#F9F9F9" stroke-width="2"/>
</g>
<g clip-path="url(#clip46_17_2252)">
<path d="M148.058 414.871C148.496 414.128 149.465 413.874 150.222 414.303C150.98 414.731 151.24 415.681 150.802 416.424L150.406 417.096C150.187 417.468 150.317 417.942 150.696 418.157L152.754 419.321C153.133 419.536 153.263 420.011 153.044 420.382L151.856 422.399C151.637 422.77 151.153 422.898 150.774 422.683L150.088 422.295C149.33 421.866 148.361 422.121 147.924 422.863C147.486 423.606 147.746 424.556 148.504 424.985L149.19 425.373C149.568 425.587 149.698 426.062 149.479 426.433L148.291 428.45C148.073 428.822 147.588 428.949 147.209 428.735L145.151 427.57C144.772 427.356 144.643 426.881 144.861 426.509L145.257 425.837C145.695 425.094 145.435 424.145 144.678 423.716C143.92 423.287 142.951 423.542 142.514 424.284L142.117 424.957C141.899 425.328 141.414 425.455 141.035 425.241L138.978 424.076C138.599 423.862 138.469 423.387 138.688 423.016L139.876 420.999C140.094 420.627 139.965 420.152 139.586 419.938L138.9 419.55C138.142 419.121 137.883 418.171 138.32 417.429C138.757 416.686 139.726 416.431 140.484 416.86L141.17 417.248C141.549 417.463 142.033 417.336 142.252 416.964L143.44 414.947C143.659 414.576 144.143 414.449 144.522 414.663L146.58 415.828C146.959 416.042 147.443 415.915 147.662 415.543L148.058 414.871Z" stroke="#F9F9F9" stroke-width="2" stroke-linecap="round" stroke-linejoin="round"/>
</g>
<g clip-path="url(#clip47_17_2252)">
<path d="M205.466 518.003C205.904 517.26 206.873 517.006 207.63 517.434C208.388 517.863 208.648 518.813 208.21 519.556L207.814 520.228C207.596 520.599 207.725 521.074 208.104 521.289L210.162 522.453C210.541 522.668 210.671 523.142 210.452 523.514L209.264 525.531C209.045 525.902 208.561 526.029 208.182 525.815L207.496 525.427C206.738 524.998 205.769 525.253 205.332 525.995C204.894 526.738 205.154 527.688 205.912 528.116L206.598 528.505C206.977 528.719 207.106 529.194 206.888 529.565L205.699 531.582C205.481 531.954 204.996 532.081 204.617 531.866L202.56 530.702C202.181 530.487 202.051 530.013 202.27 529.641L202.666 528.969C203.103 528.226 202.844 527.277 202.086 526.848C201.328 526.419 200.359 526.673 199.922 527.416L199.526 528.088C199.307 528.46 198.823 528.587 198.444 528.373L196.386 527.208C196.007 526.994 195.877 526.519 196.096 526.148L197.284 524.13C197.503 523.759 197.373 523.284 196.994 523.07L196.308 522.682C195.55 522.253 195.291 521.303 195.728 520.56C196.166 519.818 197.135 519.563 197.892 519.992L198.578 520.38C198.957 520.595 199.442 520.467 199.66 520.096L200.848 518.079C201.067 517.708 201.552 517.58 201.93 517.795L203.988 518.959C204.367 519.174 204.852 519.047 205.07 518.675L205.466 518.003Z" stroke="#F9F9F9" stroke-width="2" stroke-linecap="round" stroke-linejoin="round"/>
</g>
<g clip-path="url(#clip48_17_2252)">
<path d="M312.815 470.771C313.253 470.029 314.221 469.774 314.979 470.203C315.737 470.632 315.996 471.581 315.559 472.324L315.163 472.996C314.944 473.368 315.074 473.843 315.453 474.057L317.511 475.222C317.89 475.436 318.019 475.911 317.801 476.282L316.613 478.299C316.394 478.671 315.909 478.798 315.531 478.583L314.845 478.195C314.087 477.766 313.118 478.021 312.681 478.764C312.243 479.506 312.503 480.456 313.26 480.885L313.946 481.273C314.325 481.487 314.455 481.962 314.236 482.334L313.048 484.351C312.829 484.722 312.345 484.849 311.966 484.635L309.908 483.47C309.529 483.256 309.4 482.781 309.618 482.41L310.014 481.737C310.452 480.995 310.192 480.045 309.434 479.616C308.677 479.187 307.708 479.442 307.27 480.185L306.874 480.857C306.656 481.228 306.171 481.355 305.792 481.141L303.734 479.976C303.356 479.762 303.226 479.287 303.444 478.916L304.633 476.899C304.851 476.527 304.722 476.053 304.343 475.838L303.657 475.45C302.899 475.021 302.639 474.072 303.077 473.329C303.514 472.586 304.483 472.332 305.241 472.76L305.927 473.149C306.306 473.363 306.79 473.236 307.009 472.865L308.197 470.847C308.416 470.476 308.9 470.349 309.279 470.563L311.337 471.728C311.716 471.942 312.2 471.815 312.419 471.444L312.815 470.771Z" stroke="#F9F9F9" stroke-width="2" stroke-linecap="round" stroke-linejoin="round"/>
</g>
<g clip-path="url(#clip49_17_2252)">
<path d="M354.466 492.352C354.904 491.609 355.873 491.355 356.631 491.784C357.388 492.212 357.648 493.162 357.21 493.905L356.814 494.577C356.596 494.949 356.725 495.423 357.104 495.638L359.162 496.802C359.541 497.017 359.671 497.492 359.452 497.863L358.264 499.88C358.045 500.251 357.561 500.379 357.182 500.164L356.496 499.776C355.738 499.347 354.769 499.602 354.332 500.344C353.894 501.087 354.154 502.037 354.912 502.466L355.598 502.854C355.977 503.068 356.106 503.543 355.888 503.914L354.7 505.931C354.481 506.303 353.996 506.43 353.617 506.216L351.56 505.051C351.181 504.837 351.051 504.362 351.27 503.99L351.666 503.318C352.103 502.575 351.844 501.626 351.086 501.197C350.328 500.768 349.359 501.023 348.922 501.765L348.526 502.438C348.307 502.809 347.823 502.936 347.444 502.722L345.386 501.557C345.007 501.343 344.877 500.868 345.096 500.497L346.284 498.48C346.503 498.108 346.373 497.633 345.994 497.419L345.308 497.031C344.55 496.602 344.291 495.652 344.728 494.91C345.166 494.167 346.135 493.912 346.892 494.341L347.578 494.729C347.957 494.944 348.442 494.817 348.66 494.445L349.848 492.428C350.067 492.057 350.552 491.93 350.93 492.144L352.988 493.309C353.367 493.523 353.852 493.396 354.07 493.024L354.466 492.352Z" stroke="#F9F9F9" stroke-width="2" stroke-linecap="round" stroke-linejoin="round"/>
</g>
<g clip-path="url(#clip50_17_2252)">
<path d="M22.8003 384.98L33.0975 402.462M22.8003 384.98C22.8003 384.98 21.6178 382.972 21.2161 382.29C20.3411 380.805 20.8603 378.906 22.3758 378.048C23.8912 377.19 25.8289 377.699 26.7039 379.185C27.5788 380.67 27.0596 382.569 25.5442 383.427C24.7246 383.891 22.8003 384.98 22.8003 384.98ZM22.8003 384.98C22.8003 384.98 21.2659 382.375 20.82 381.618C19.7263 379.761 17.3041 379.125 15.4099 380.197C13.5156 381.269 12.8666 383.643 13.9602 385.5C15.0539 387.357 17.4761 387.993 19.3704 386.921C20.4923 386.286 22.8003 384.98 22.8003 384.98ZM16.365 395.794L35.5723 384.924M16.365 395.794C14.8495 396.651 12.9118 396.142 12.0369 394.657C11.1619 393.171 11.6811 391.272 13.1966 390.415L32.4039 379.545C33.9194 378.687 35.8571 379.196 36.732 380.682C37.607 382.167 37.0878 384.066 35.5723 384.924M16.365 395.794L21.9097 405.207C22.7846 406.692 24.7223 407.201 26.2378 406.344L39.9573 398.58C41.4727 397.722 41.992 395.823 41.117 394.337L35.5723 384.924" stroke="#F9F9F9" stroke-width="2" stroke-linecap="round" stroke-linejoin="round"/>
</g>
<g clip-path="url(#clip51_17_2252)">
<path d="M208.8 624.842L219.098 642.324M208.8 624.842C208.8 624.842 207.618 622.835 207.216 622.153C206.341 620.667 206.86 618.768 208.376 617.911C209.891 617.053 211.829 617.562 212.704 619.047C213.579 620.533 213.06 622.432 211.544 623.29C210.725 623.753 208.8 624.842 208.8 624.842ZM208.8 624.842C208.8 624.842 207.266 622.237 206.82 621.48C205.726 619.624 203.304 618.988 201.41 620.06C199.516 621.131 198.867 623.506 199.96 625.362C201.054 627.219 203.476 627.855 205.37 626.783C206.492 626.148 208.8 624.842 208.8 624.842ZM202.365 635.656L221.572 624.787M202.365 635.656C200.85 636.514 198.912 636.005 198.037 634.519C197.162 633.034 197.681 631.135 199.197 630.277L218.404 619.408C219.919 618.55 221.857 619.059 222.732 620.544C223.607 622.03 223.088 623.929 221.572 624.787M202.365 635.656L207.91 645.069C208.785 646.555 210.722 647.064 212.238 646.206L225.957 638.442C227.473 637.585 227.992 635.685 227.117 634.2L221.572 624.787" stroke="#F9F9F9" stroke-width="2" stroke-linecap="round" stroke-linejoin="round"/>
</g>
<g clip-path="url(#clip52_17_2252)">
<path d="M187.556 440.88L197.853 458.362M187.556 440.88C187.556 440.88 186.374 438.873 185.972 438.191C185.097 436.705 185.616 434.806 187.132 433.948C188.647 433.091 190.585 433.6 191.46 435.085C192.335 436.57 191.815 438.47 190.3 439.327C189.48 439.791 187.556 440.88 187.556 440.88ZM187.556 440.88C187.556 440.88 186.022 438.275 185.576 437.518C184.482 435.661 182.06 435.025 180.166 436.097C178.271 437.169 177.622 439.543 178.716 441.4C179.81 443.257 182.232 443.893 184.126 442.821C185.248 442.186 187.556 440.88 187.556 440.88ZM181.121 451.694L200.328 440.824M181.121 451.694C179.605 452.551 177.668 452.042 176.793 450.557C175.918 449.072 176.437 447.172 177.952 446.315L197.16 435.445C198.675 434.588 200.613 435.097 201.488 436.582C202.363 438.067 201.844 439.967 200.328 440.824M181.121 451.694L186.666 461.107C187.54 462.592 189.478 463.101 190.994 462.244L204.713 454.48C206.229 453.622 206.748 451.723 205.873 450.238L200.328 440.824" stroke="#F9F9F9" stroke-width="2" stroke-linecap="round" stroke-linejoin="round"/>
</g>
<g clip-path="url(#clip53_17_2252)">
<path d="M112.8 654.439L123.098 671.921M112.8 654.439C112.8 654.439 111.618 652.432 111.216 651.75C110.341 650.265 110.86 648.365 112.376 647.508C113.891 646.65 115.829 647.159 116.704 648.644C117.579 650.13 117.06 652.029 115.544 652.887C114.725 653.35 112.8 654.439 112.8 654.439ZM112.8 654.439C112.8 654.439 111.266 651.835 110.82 651.078C109.726 649.221 107.304 648.585 105.41 649.657C103.516 650.729 102.867 653.103 103.96 654.959C105.054 656.816 107.476 657.452 109.37 656.38C110.492 655.745 112.8 654.439 112.8 654.439ZM106.365 665.253L125.572 654.384M106.365 665.253C104.85 666.111 102.912 665.602 102.037 664.116C101.162 662.631 101.681 660.732 103.197 659.874L122.404 649.005C123.919 648.147 125.857 648.656 126.732 650.141C127.607 651.627 127.088 653.526 125.572 654.384M106.365 665.253L111.91 674.666C112.785 676.152 114.722 676.661 116.238 675.803L129.957 668.039C131.473 667.182 131.992 665.282 131.117 663.797L125.572 654.384" stroke="#F9F9F9" stroke-width="2" stroke-linecap="round" stroke-linejoin="round"/>
</g>
<g clip-path="url(#clip54_17_2252)">
<path d="M345.8 351.562L356.098 369.044M345.8 351.562C345.8 351.562 344.618 349.555 344.216 348.873C343.341 347.387 343.86 345.488 345.376 344.63C346.891 343.773 348.829 344.282 349.704 345.767C350.579 347.252 350.06 349.152 348.544 350.009C347.725 350.473 345.8 351.562 345.8 351.562ZM345.8 351.562C345.8 351.562 344.266 348.957 343.82 348.2C342.726 346.343 340.304 345.707 338.41 346.779C336.516 347.851 335.867 350.225 336.96 352.082C338.054 353.939 340.476 354.575 342.37 353.503C343.492 352.868 345.8 351.562 345.8 351.562ZM339.365 362.376L358.572 351.506M339.365 362.376C337.85 363.233 335.912 362.725 335.037 361.239C334.162 359.754 334.681 357.854 336.197 356.997L355.404 346.127C356.919 345.27 358.857 345.779 359.732 347.264C360.607 348.749 360.088 350.649 358.572 351.506M339.365 362.376L344.91 371.789C345.785 373.275 347.722 373.783 349.238 372.926L362.957 365.162C364.473 364.304 364.992 362.405 364.117 360.92L358.572 351.506" stroke="#F9F9F9" stroke-width="2" stroke-linecap="round" stroke-linejoin="round"/>
</g>
<g clip-path="url(#clip55_17_2252)">
<path d="M345.8 22.0474L356.098 39.5292M345.8 22.0474C345.8 22.0474 344.618 20.04 344.216 19.3579C343.341 17.8725 343.86 15.9732 345.376 15.1156C346.891 14.258 348.829 14.767 349.704 16.2523C350.579 17.7377 350.06 19.637 348.544 20.4946C347.725 20.9584 345.8 22.0474 345.8 22.0474ZM345.8 22.0474C345.8 22.0474 344.266 19.4425 343.82 18.6855C342.726 16.8288 340.304 16.1927 338.41 17.2646C336.516 18.3366 335.867 20.7108 336.96 22.5675C338.054 24.4242 340.476 25.0604 342.37 23.9884C343.492 23.3535 345.8 22.0474 345.8 22.0474ZM339.365 32.8612L358.572 21.9917M339.365 32.8612C337.85 33.7188 335.912 33.2098 335.037 31.7245C334.162 30.2391 334.681 28.3397 336.197 27.4822L355.404 16.6127C356.919 15.7551 358.857 16.264 359.732 17.7494C360.607 19.2347 360.088 21.1341 358.572 21.9917M339.365 32.8612L344.91 42.2745C345.785 43.7598 347.722 44.2688 349.238 43.4112L362.957 35.6472C364.473 34.7897 364.992 32.8903 364.117 31.4049L358.572 21.9917" stroke="#F9F9F9" stroke-width="2" stroke-linecap="round" stroke-linejoin="round"/>
</g>
<g clip-path="url(#clip56_17_2252)">
<path d="M338.8 560.715L349.098 578.197M338.8 560.715C338.8 560.715 337.618 558.708 337.216 558.026C336.341 556.54 336.86 554.641 338.376 553.783C339.891 552.926 341.829 553.435 342.704 554.92C343.579 556.405 343.06 558.305 341.544 559.162C340.725 559.626 338.8 560.715 338.8 560.715ZM338.8 560.715C338.8 560.715 337.266 558.11 336.82 557.353C335.726 555.497 333.304 554.86 331.41 555.932C329.516 557.004 328.867 559.379 329.96 561.235C331.054 563.092 333.476 563.728 335.37 562.656C336.492 562.021 338.8 560.715 338.8 560.715ZM332.365 571.529L351.572 560.659M332.365 571.529C330.85 572.387 328.912 571.878 328.037 570.392C327.162 568.907 327.681 567.008 329.197 566.15L348.404 555.28C349.919 554.423 351.857 554.932 352.732 556.417C353.607 557.903 353.088 559.802 351.572 560.659M332.365 571.529L337.91 580.942C338.785 582.428 340.722 582.937 342.238 582.079L355.957 574.315C357.473 573.457 357.992 571.558 357.117 570.073L351.572 560.659" stroke="#F9F9F9" stroke-width="2" stroke-linecap="round" stroke-linejoin="round"/>
</g>
<g clip-path="url(#clip57_17_2252)">
<path d="M105.178 558.891L115.475 576.373M105.178 558.891C105.178 558.891 103.996 556.884 103.594 556.202C102.719 554.716 103.238 552.817 104.754 551.96C106.269 551.102 108.207 551.611 109.082 553.096C109.957 554.582 109.438 556.481 107.922 557.339C107.103 557.802 105.178 558.891 105.178 558.891ZM105.178 558.891C105.178 558.891 103.644 556.286 103.198 555.529C102.104 553.673 99.6821 553.037 97.7878 554.109C95.8935 555.181 95.2445 557.555 96.3382 559.411C97.4318 561.268 99.854 561.904 101.748 560.832C102.87 560.197 105.178 558.891 105.178 558.891ZM98.7429 569.705L117.95 558.836M98.7429 569.705C97.2275 570.563 95.2897 570.054 94.4148 568.568C93.5399 567.083 94.0591 565.184 95.5745 564.326L114.782 553.457C116.297 552.599 118.235 553.108 119.11 554.593C119.985 556.079 119.466 557.978 117.95 558.836M98.7429 569.705L104.288 579.118C105.163 580.604 107.1 581.113 108.616 580.255L122.335 572.491C123.851 571.634 124.37 569.734 123.495 568.249L117.95 558.836" stroke="#F9F9F9" stroke-width="2" stroke-linecap="round" stroke-linejoin="round"/>
</g>
<path d="M214.451 409.936C214.451 413.653 211.372 416.7 207.53 416.7C203.689 416.7 200.609 413.653 200.609 409.936C200.609 406.219 203.689 403.172 207.53 403.172C211.372 403.172 214.451 406.219 214.451 409.936Z" stroke="#F9F9F9" stroke-width="2"/>
<path d="M360.842 442.841C360.842 446.558 357.762 449.605 353.921 449.605C350.08 449.605 347 446.558 347 442.841C347 439.124 350.08 436.077 353.921 436.077C357.762 436.077 360.842 439.124 360.842 442.841Z" stroke="#F9F9F9" stroke-width="2"/>
<path d="M278.842 596.746C278.842 600.463 275.762 603.51 271.921 603.51C268.08 603.51 265 600.463 265 596.746C265 593.029 268.08 589.982 271.921 589.982C275.762 589.982 278.842 593.029 278.842 596.746Z" stroke="#F9F9F9" stroke-width="2"/>
<path d="M180.842 572.082C180.842 575.799 177.762 578.846 173.921 578.846C170.08 578.846 167 575.799 167 572.082C167 568.365 170.08 565.318 173.921 565.318C177.762 565.318 180.842 568.365 180.842 572.082Z" stroke="#F9F9F9" stroke-width="2"/>
<path d="M152.666 326.862C152.666 330.579 149.587 333.626 145.745 333.626C141.904 333.626 138.824 330.579 138.824 326.862C138.824 323.145 141.904 320.098 145.745 320.098C149.587 320.098 152.666 323.145 152.666 326.862Z" stroke="#F9F9F9" stroke-width="2"/>
<path d="M94.0519 245.341C94.0519 249.057 90.9723 252.104 87.131 252.104C83.2896 252.104 80.21 249.057 80.21 245.341C80.21 241.624 83.2896 238.577 87.131 238.577C90.9723 238.577 94.0519 241.624 94.0519 245.341Z" stroke="#F9F9F9" stroke-width="2"/>
<path d="M149.498 96.2724C149.498 99.9893 146.419 103.036 142.577 103.036C138.736 103.036 135.656 99.9893 135.656 96.2724C135.656 92.5556 138.736 89.5085 142.577 89.5085C146.419 89.5085 149.498 92.5556 149.498 96.2724Z" stroke="#F9F9F9" stroke-width="2"/>
<path d="M229.501 283.383C229.501 287.1 226.422 290.147 222.58 290.147C218.739 290.147 215.659 287.1 215.659 283.383C215.659 279.666 218.739 276.619 222.58 276.619C226.422 276.619 229.501 279.666 229.501 283.383Z" stroke="#F9F9F9" stroke-width="2"/>
<path d="M295.245 381.985C295.245 385.702 292.166 388.749 288.324 388.749C284.483 388.749 281.403 385.702 281.403 381.985C281.403 378.269 284.483 375.221 288.324 375.221C292.166 375.221 295.245 378.269 295.245 381.985Z" stroke="#F9F9F9" stroke-width="2"/>
<path d="M42.842 437.908C42.842 441.625 39.7623 444.672 35.921 444.672C32.0797 444.672 29 441.625 29 437.908C29 434.191 32.0797 431.144 35.921 431.144C39.7623 431.144 42.842 434.191 42.842 437.908Z" stroke="#F9F9F9" stroke-width="2"/>
<path d="M349.842 402.392C349.842 406.109 346.762 409.156 342.921 409.156C339.08 409.156 336 406.109 336 402.392C336 398.675 339.08 395.628 342.921 395.628C346.762 395.628 349.842 398.675 349.842 402.392Z" stroke="#F9F9F9" stroke-width="2"/>
<path d="M315.84 250.775C315.84 254.492 312.76 257.539 308.919 257.539C305.078 257.539 301.998 254.492 301.998 250.775C301.998 247.058 305.078 244.011 308.919 244.011C312.76 244.011 315.84 247.058 315.84 250.775Z" stroke="#F9F9F9" stroke-width="2"/>
<path d="M76.6252 369.563C76.6252 373.28 73.5455 376.327 69.7042 376.327C65.8629 376.327 62.7832 373.28 62.7832 369.563C62.7832 365.846 65.8629 362.799 69.7042 362.799C73.5455 362.799 76.6252 365.846 76.6252 369.563Z" stroke="#F9F9F9" stroke-width="2"/>
<path d="M279.403 62.111C279.403 65.8278 276.323 68.8749 272.482 68.8749C268.64 68.8749 265.561 65.8278 265.561 62.111C265.561 58.3941 268.64 55.347 272.482 55.347C276.323 55.347 279.403 58.3941 279.403 62.111Z" stroke="#F9F9F9" stroke-width="2"/>
<path d="M174.847 203.415C174.847 207.132 171.767 210.179 167.926 210.179C164.085 210.179 161.005 207.132 161.005 203.415C161.005 199.698 164.085 196.651 167.926 196.651C171.767 196.651 174.847 199.698 174.847 203.415Z" stroke="#F9F9F9" stroke-width="2"/>
<path d="M245.343 159.161C245.343 162.877 242.263 165.924 238.422 165.924C234.581 165.924 231.501 162.877 231.501 159.161C231.501 155.444 234.581 152.397 238.422 152.397C242.263 152.397 245.343 155.444 245.343 159.161Z" stroke="#F9F9F9" stroke-width="2"/>
<path d="M19.842 28.4813C19.842 32.1982 16.7623 35.2453 12.921 35.2453C9.07966 35.2453 6 32.1982 6 28.4813C6 24.7645 9.07966 21.7174 12.921 21.7174C16.7623 21.7174 19.842 24.7645 19.842 28.4813Z" stroke="#F9F9F9" stroke-width="2"/>
<path d="M315.84 135.092C315.84 138.809 312.76 141.856 308.919 141.856C305.078 141.856 301.998 138.809 301.998 135.092C301.998 131.375 305.078 128.328 308.919 128.328C312.76 128.328 315.84 131.375 315.84 135.092Z" stroke="#F9F9F9" stroke-width="2"/>
<defs>
<clipPath id="clip0_17_2252">
<rect width="25.2225" height="24.9712" fill="white" transform="matrix(0.870307 -0.492509 0.507528 0.861635 63.9053 186.862)"/>
</clipPath>
<clipPath id="clip1_17_2252">
<rect width="25.2225" height="24.9712" fill="white" transform="matrix(0.870307 -0.492509 0.507528 0.861635 43.9326 310.917)"/>
</clipPath>
<clipPath id="clip2_17_2252">
<rect width="25.2225" height="24.9712" fill="white" transform="matrix(0.870307 -0.492509 0.507528 0.861635 197.6 363.712)"/>
</clipPath>
<clipPath id="clip3_17_2252">
<rect width="25.2225" height="24.9712" fill="white" transform="matrix(0.870307 -0.492509 0.507528 0.861635 146.906 518.991)"/>
</clipPath>
<clipPath id="clip4_17_2252">
<rect width="25.2225" height="24.9712" fill="white" transform="matrix(0.870307 -0.492509 0.507528 0.861635 65 605.351)"/>
</clipPath>
<clipPath id="clip5_17_2252">
<rect width="25.2225" height="24.9712" fill="white" transform="matrix(0.870307 -0.492509 0.507528 0.861635 224.531 115.764)"/>
</clipPath>
<clipPath id="clip6_17_2252">
<rect width="25.2225" height="24.9712" fill="white" transform="matrix(0.870307 -0.492509 0.507528 0.861635 277 21.3008)"/>
</clipPath>
<clipPath id="clip7_17_2252">
<rect width="25.2225" height="24.9712" fill="white" transform="matrix(0.870307 -0.492509 0.507528 0.861635 218.194 239.49)"/>
</clipPath>
<clipPath id="clip8_17_2252">
<rect width="25.2225" height="24.9712" fill="white" transform="matrix(0.870307 -0.492509 0.507528 0.861635 60.9922 78.9429)"/>
</clipPath>
<clipPath id="clip9_17_2252">
<rect width="63.0562" height="62.428" fill="white" transform="matrix(0.870307 0.492509 -0.507528 0.861635 159.496 207.576)"/>
</clipPath>
<clipPath id="clip10_17_2252">
<rect width="63.0562" height="62.428" fill="white" transform="matrix(0.870307 0.492509 -0.507528 0.861635 139.523 331.631)"/>
</clipPath>
<clipPath id="clip11_17_2252">
<rect width="63.0562" height="62.428" fill="white" transform="matrix(0.870307 0.492509 -0.507528 0.861635 137.684 580.103)"/>
</clipPath>
<clipPath id="clip12_17_2252">
<rect width="63.0562" height="62.428" fill="white" transform="matrix(0.870307 0.492509 -0.507528 0.861635 44.3584 472.824)"/>
</clipPath>
<clipPath id="clip13_17_2252">
<rect width="63.0562" height="62.428" fill="white" transform="matrix(0.870307 0.492509 -0.507528 0.861635 293.19 384.426)"/>
</clipPath>
<clipPath id="clip14_17_2252">
<rect width="63.0562" height="62.428" fill="white" transform="matrix(0.870307 0.492509 -0.507528 0.861635 309.684 573.197)"/>
</clipPath>
<clipPath id="clip15_17_2252">
<rect width="63.0562" height="62.428" fill="white" transform="matrix(0.870307 0.492509 -0.507528 0.861635 320.122 136.478)"/>
</clipPath>
<clipPath id="clip16_17_2252">
<rect width="63.0562" height="62.428" fill="white" transform="matrix(0.870307 0.492509 -0.507528 0.861635 313.785 260.203)"/>
</clipPath>
<clipPath id="clip17_17_2252">
<rect width="63.0562" height="62.428" fill="white" transform="matrix(0.870307 0.492509 -0.507528 0.861635 175.592 87.2348)"/>
</clipPath>
<clipPath id="clip18_17_2252">
<rect width="50.6943" height="49.6892" fill="white" transform="translate(114.062 138.198)"/>
</clipPath>
<clipPath id="clip19_17_2252">
<rect width="50.6943" height="49.6892" fill="white" transform="translate(94.0889 262.254)"/>
</clipPath>
<clipPath id="clip20_17_2252">
<rect width="50.6943" height="49.6892" fill="white" transform="translate(247.756 315.048)"/>
</clipPath>
<clipPath id="clip21_17_2252">
<rect width="50.6943" height="49.6892" fill="white" transform="translate(274.688 67.1002)"/>
</clipPath>
<clipPath id="clip22_17_2252">
<rect width="50.6943" height="49.6892" fill="white" transform="translate(187 1.97256)"/>
</clipPath>
<clipPath id="clip23_17_2252">
<rect width="50.6943" height="49.6892" fill="white" transform="translate(268.351 190.825)"/>
</clipPath>
<clipPath id="clip24_17_2252">
<rect width="50.6943" height="49.6892" fill="white" transform="translate(111.147 30.2791)"/>
</clipPath>
<clipPath id="clip25_17_2252">
<rect width="18.9168" height="18.7284" fill="white" transform="matrix(0.870307 0.492509 -0.507528 0.861635 186.624 164.291)"/>
</clipPath>
<clipPath id="clip26_17_2252">
<rect width="18.9168" height="18.7284" fill="white" transform="matrix(0.870307 0.492509 -0.507528 0.861635 166.652 288.346)"/>
</clipPath>
<clipPath id="clip27_17_2252">
<rect width="18.9168" height="18.7284" fill="white" transform="matrix(0.870307 0.492509 -0.507528 0.861635 320.318 341.141)"/>
</clipPath>
<clipPath id="clip28_17_2252">
<rect width="18.9168" height="18.7284" fill="white" transform="matrix(0.870307 0.492509 -0.507528 0.861635 347.25 93.1933)"/>
</clipPath>
<clipPath id="clip29_17_2252">
<rect width="18.9168" height="18.7284" fill="white" transform="matrix(0.870307 0.492509 -0.507528 0.861635 340.913 216.918)"/>
</clipPath>
<clipPath id="clip30_17_2252">
<rect width="18.9168" height="18.7284" fill="white" transform="matrix(0.870307 0.492509 -0.507528 0.861635 183.71 56.3722)"/>
</clipPath>
<clipPath id="clip31_17_2252">
<rect width="37.8337" height="37.4568" fill="white" transform="matrix(0.870307 -0.492509 0.507528 0.861635 44.5283 139.918)"/>
</clipPath>
<clipPath id="clip32_17_2252">
<rect width="37.8337" height="37.4568" fill="white" transform="matrix(0.870307 -0.492509 0.507528 0.861635 24.5547 263.974)"/>
</clipPath>
<clipPath id="clip33_17_2252">
<rect width="37.8337" height="37.4568" fill="white" transform="matrix(0.870307 -0.492509 0.507528 0.861635 178.223 316.769)"/>
</clipPath>
<clipPath id="clip34_17_2252">
<rect width="37.8337" height="37.4568" fill="white" transform="matrix(0.870307 -0.492509 0.507528 0.861635 205.153 68.8204)"/>
</clipPath>
<clipPath id="clip35_17_2252">
<rect width="37.8337" height="37.4568" fill="white" transform="matrix(0.870307 -0.492509 0.507528 0.861635 198.816 192.546)"/>
</clipPath>
<clipPath id="clip36_17_2252">
<rect width="37.8337" height="37.4568" fill="white" transform="matrix(0.870307 -0.492509 0.507528 0.861635 27.7236 18.6335)"/>
</clipPath>
<clipPath id="clip37_17_2252">
<rect width="25.2225" height="24.9712" fill="white" transform="matrix(0.870307 -0.492509 0.507528 0.861635 184.134 486.382)"/>
</clipPath>
<clipPath id="clip38_17_2252">
<rect width="25.2225" height="24.9712" fill="white" transform="matrix(0.870307 -0.492509 0.507528 0.861635 210 575.754)"/>
</clipPath>
<clipPath id="clip39_17_2252">
<rect width="63.0562" height="62.428" fill="white" transform="matrix(0.870307 0.492509 -0.507528 0.861635 110.894 437.11)"/>
</clipPath>
<clipPath id="clip40_17_2252">
<rect width="63.0562" height="62.428" fill="white" transform="matrix(0.870307 0.492509 -0.507528 0.861635 279.725 507.096)"/>
</clipPath>
<clipPath id="clip41_17_2252">
<rect width="50.6943" height="49.6892" fill="white" transform="translate(69.5352 381.818)"/>
</clipPath>
<clipPath id="clip42_17_2252">
<rect width="50.6943" height="49.6892" fill="white" transform="translate(15 551.493)"/>
</clipPath>
<clipPath id="clip43_17_2252">
<rect width="50.6943" height="49.6892" fill="white" transform="translate(276 638.311)"/>
</clipPath>
<clipPath id="clip44_17_2252">
<rect width="50.6943" height="49.6892" fill="white" transform="translate(234.291 437.719)"/>
</clipPath>
<clipPath id="clip45_17_2252">
<rect width="50.6943" height="49.6892" fill="white" transform="translate(6 630.418)"/>
</clipPath>
<clipPath id="clip46_17_2252">
<rect width="18.9168" height="18.7284" fill="white" transform="matrix(0.870307 0.492509 -0.507528 0.861635 142.097 407.911)"/>
</clipPath>
<clipPath id="clip47_17_2252">
<rect width="18.9168" height="18.7284" fill="white" transform="matrix(0.870307 0.492509 -0.507528 0.861635 199.505 511.043)"/>
</clipPath>
<clipPath id="clip48_17_2252">
<rect width="18.9168" height="18.7284" fill="white" transform="matrix(0.870307 0.492509 -0.507528 0.861635 306.854 463.812)"/>
</clipPath>
<clipPath id="clip49_17_2252">
<rect width="18.9168" height="18.7284" fill="white" transform="matrix(0.870307 0.492509 -0.507528 0.861635 348.505 485.392)"/>
</clipPath>
<clipPath id="clip50_17_2252">
<rect width="37.8337" height="37.4568" fill="white" transform="matrix(0.870307 -0.492509 0.507528 0.861635 0 383.539)"/>
</clipPath>
<clipPath id="clip51_17_2252">
<rect width="37.8337" height="37.4568" fill="white" transform="matrix(0.870307 -0.492509 0.507528 0.861635 186 623.401)"/>
</clipPath>
<clipPath id="clip52_17_2252">
<rect width="37.8337" height="37.4568" fill="white" transform="matrix(0.870307 -0.492509 0.507528 0.861635 164.756 439.439)"/>
</clipPath>
<clipPath id="clip53_17_2252">
<rect width="37.8337" height="37.4568" fill="white" transform="matrix(0.870307 -0.492509 0.507528 0.861635 90 652.998)"/>
</clipPath>
<clipPath id="clip54_17_2252">
<rect width="37.8337" height="37.4568" fill="white" transform="matrix(0.870307 -0.492509 0.507528 0.861635 323 350.121)"/>
</clipPath>
<clipPath id="clip55_17_2252">
<rect width="37.8337" height="37.4568" fill="white" transform="matrix(0.870307 -0.492509 0.507528 0.861635 323 20.6061)"/>
</clipPath>
<clipPath id="clip56_17_2252">
<rect width="37.8337" height="37.4568" fill="white" transform="matrix(0.870307 -0.492509 0.507528 0.861635 316 559.274)"/>
</clipPath>
<clipPath id="clip57_17_2252">
<rect width="37.8337" height="37.4568" fill="white" transform="matrix(0.870307 -0.492509 0.507528 0.861635 82.3779 557.45)"/>
</clipPath>
</defs>
</svg>
